<svg width="48" height="48" viewBox="0 0 48 48" fill="none" xmlns="http://www.w3.org/2000/svg">
<g clip-path="url(#clip0_13_47)">
<path fill-rule="evenodd" clip-rule="evenodd" d="M0 24C0 10.7452 10.7452 0 24 0C37.2548 0 48 10.7452 48 24C48 37.2548 37.2548 48 24 48C10.7452 48 0 37.2548 0 24ZM33.8949 10.4H14.9051C13.3038 10.4 12 11.688 12 13.284V32.212C12 33.808 13.3038 35.096 14.9051 35.096H30.9755L30.2245 32.506L32.0384 34.172L33.7531 35.74L36.8 38.4V13.284C36.8 11.688 35.4962 10.4 33.8949 10.4Z" fill="#4EE1A0"/>
<path fill-rule="evenodd" clip-rule="evenodd" d="M28.4247 28.6839C28.4247 28.6839 27.9145 28.0819 27.4894 27.5499C29.3458 27.0319 30.0544 25.8839 30.0544 25.8839C29.4734 26.2619 28.9207 26.5279 28.4247 26.7099C27.7161 27.0039 27.0359 27.1999 26.3698 27.3119C25.0094 27.5639 23.7623 27.4939 22.6994 27.2979C21.8917 27.1439 21.1973 26.9199 20.6162 26.6959C20.2903 26.5699 19.936 26.4159 19.5817 26.2199C19.5392 26.1919 19.4967 26.1779 19.4542 26.1499C19.4258 26.1359 19.4117 26.1219 19.3975 26.1079C19.1424 25.9679 19.0007 25.8699 19.0007 25.8699C19.0007 25.8699 19.6809 26.9899 21.4807 27.5219C21.0555 28.0539 20.5312 28.6839 20.5312 28.6839C17.3993 28.5859 16.2089 26.5559 16.2089 26.5559C16.2089 22.0479 18.2496 18.3939 18.2496 18.3939C20.2903 16.8819 22.2318 16.9239 22.2318 16.9239L22.3735 17.0919C19.8226 17.8199 18.6464 18.9259 18.6464 18.9259C18.6464 18.9259 18.9582 18.7579 19.4825 18.5199C20.9989 17.8619 22.2034 17.6799 22.6994 17.6379C22.7845 17.6239 22.8553 17.6099 22.9403 17.6099C23.8048 17.4979 24.7826 17.4699 25.803 17.5819C27.1493 17.7359 28.5947 18.1279 30.0686 18.9259C30.0686 18.9259 28.949 17.8759 26.5399 17.1479L26.7383 16.9239C26.7383 16.9239 28.6798 16.8819 30.7205 18.3939C30.7205 18.3939 32.7611 22.0479 32.7611 26.5559C32.7611 26.5559 31.5566 28.5859 28.4247 28.6839ZM22.2341 22.3999C21.4327 22.3999 20.8 23.1206 20.8 23.9999C20.8 24.8792 21.4467 25.5999 22.2341 25.5999C23.0355 25.5999 23.6682 24.8792 23.6682 23.9999C23.6822 23.1206 23.0355 22.3999 22.2341 22.3999ZM27.3659 22.3999C26.5645 22.3999 25.9318 23.1206 25.9318 23.9999C25.9318 24.8792 26.5786 25.5999 27.3659 25.5999C28.1673 25.5999 28.8 24.8792 28.8 23.9999C28.8 23.1206 28.1673 22.3999 27.3659 22.3999Z" fill="#4EE1A0"/>
</g>
<defs>
<clipPath id="clip0_13_47">
<rect width="48" height="48" fill="white"/>
</clipPath>
</defs>
</svg>
