<svg width="256" height="260" viewBox="0 0 256 260" fill="none" xmlns="http://www.w3.org/2000/svg">
<path d="M200.9 200.15C200.9 214.05 168.7 225.25 129 225.25C89.2996 225.25 57.0996 213.95 57.0996 200.15C57.0996 186.25 89.2996 175.05 129 175.05C168.7 175.05 200.9 186.25 200.9 200.15Z" fill="#9EDCF2"/>
<path d="M200.9 200.15C200.9 214.05 168.7 225.25 129 225.25C89.2996 225.25 57.0996 213.95 57.0996 200.15C57.0996 186.25 89.2996 175.05 129 175.05C168.7 175.05 200.9 186.25 200.9 200.15Z" fill="#7DBCE7"/>
<path d="M46.9001 126.25L44.8001 133.45C44.8001 133.45 44.3001 136.05 46.7001 136.55C49.3001 136.45 49.1001 134.05 48.9001 133.35L46.9001 126.25Z" fill="#9EDCF2"/>
<path d="M255.8 95.95L256 95.0499C234.9 90.8499 213.3 90.75 200.2 91.35C202.3 83.65 203 74.65 203 64.75C203 50.45 197.6 39.05 189 30.45C190.5 25.55 192.5 14.65 187 0.749956C187 0.749956 177.2 -2.35004 154.9 12.55C146.2 10.35 136.9 9.24996 127.6 9.24996C117.4 9.24996 107.1 10.55 97.4 13.15C74.4 -2.55004 64.3 0.649956 64.3 0.649956C57.7 17.15 61.8 29.45 63 32.45C55.2 40.85 50.5 51.55 50.5 64.65C50.5 74.55 51.6 83.45 54.4 91.15C41.2 90.65 20.4 90.85 0 94.95L0.2 95.85C20.6 91.75 41.6 91.65 54.7 92.15C55.3 93.75 56 95.35 56.7 96.85C43.7 97.25 21.6 98.95 0.4 104.95L0.7 105.85C22.1 99.85 44.4 98.25 57.3 97.85C65.1 112.25 80.3 121.65 107.5 124.55C103.6 127.15 99.7 131.55 98.1 139.05C92.8 141.55 76.2 147.75 66.2 130.55C66.2 130.55 60.6 120.35 49.9 119.55C49.9 119.55 39.5 119.35 49.2 126.05C49.2 126.05 56.1 129.35 60.9 141.65C60.9 141.65 67.2 162.65 97.3 155.85V177.35C97.3 177.35 96.7 185.05 89.6 187.55C89.6 187.55 85.4 190.45 89.9 192.05C89.9 192.05 109.4 193.65 109.4 177.65V154.05C109.4 154.05 108.6 144.65 113.2 141.45V180.25C113.2 180.25 112.9 189.55 108.1 193.05C108.1 193.05 104.9 198.75 111.9 197.25C111.9 197.25 125.3 195.35 125.9 179.65L126.2 140.35H129.4L129.7 179.65C130.3 195.25 143.7 197.25 143.7 197.25C150.7 198.85 147.5 193.05 147.5 193.05C142.7 189.55 142.4 180.25 142.4 180.25V141.75C147 145.35 146.2 154.05 146.2 154.05V177.65C146.2 193.65 165.7 192.05 165.7 192.05C170.2 190.45 166 187.55 166 187.55C159 184.95 158.3 177.35 158.3 177.35V146.35C158.3 134.25 153.2 127.85 148.2 124.55C177.2 121.65 191.1 112.35 197.5 97.75C210.2 98.05 233.1 99.65 254.9 105.85L255.2 104.95C233.5 98.85 210.8 97.25 197.9 96.85C198.5 95.35 199 93.85 199.5 92.25C212.9 91.75 234.6 91.75 255.8 95.95Z" fill="#ECECEC"/>
<path d="M174.6 64.05C180.8 69.75 184.5 76.55 184.5 83.85C184.5 118.25 158.9 119.15 127.3 119.15C95.6996 119.15 70.0996 114.35 70.0996 83.85C70.0996 76.55 73.6996 69.75 79.8996 64.15C90.1996 54.75 107.6 59.75 127.3 59.75C147 59.75 164.3 54.65 174.6 64.05Z" fill="#F5CCB3"/>
<path d="M108.3 85.6499C108.3 95.1499 103 102.75 96.4 102.75C89.8 102.75 84.5 95.0499 84.5 85.6499C84.5 76.1499 89.8 68.5499 96.4 68.5499C103 68.4499 108.3 76.1499 108.3 85.6499Z" fill="white"/>
<path d="M104.5 85.85C104.5 92.15 100.9 97.25 96.6002 97.25C92.2002 97.25 88.7002 92.15 88.7002 85.85C88.7002 79.55 92.3002 74.45 96.6002 74.45C100.9 74.45 104.5 79.55 104.5 85.85Z" fill="#AF5C51"/>
<path d="M172.2 85.6499C172.2 95.1499 166.9 102.75 160.3 102.75C153.7 102.75 148.4 95.0499 148.4 85.6499C148.4 76.1499 153.7 68.5499 160.3 68.5499C166.8 68.4499 172.2 76.1499 172.2 85.6499Z" fill="white"/>
<path d="M168.3 85.85C168.3 92.15 164.7 97.25 160.4 97.25C156 97.25 152.5 92.15 152.5 85.85C152.5 79.55 156.1 74.45 160.4 74.45C164.8 74.45 168.3 79.55 168.3 85.85Z" fill="#AF5C51"/>
<path d="M130.5 100.85C130.5 102.45 129.2 103.85 127.5 103.85C125.9 103.85 124.5 102.55 124.5 100.85C124.5 99.15 125.8 97.85 127.5 97.85C129.1 97.85 130.5 99.15 130.5 100.85Z" fill="#AF5C51"/>
<path d="M120.6 108.35C120.4 107.85 120.7 107.35 121.2 107.15C121.7 106.95 122.2 107.25 122.4 107.75C123.2 109.95 125.2 111.35 127.5 111.35C129.8 111.35 131.8 109.85 132.6 107.75C132.8 107.25 133.3 106.95 133.8 107.15C134.3 107.35 134.6 107.85 134.4 108.35C133.4 111.25 130.6 113.25 127.5 113.25C124.4 113.25 121.6 111.25 120.6 108.35Z" fill="#AF5C51"/>
<path d="M54.4998 121.95C54.4998 122.75 53.5998 123.35 52.3998 123.35C51.2998 123.35 50.2998 122.75 50.2998 121.95C50.2998 121.15 51.1998 120.55 52.3998 120.55C53.5998 120.55 54.4998 121.15 54.4998 121.95Z" fill="#C4E5D9"/>
<path d="M60.2996 125.15C60.2996 125.95 59.3996 126.55 58.1996 126.55C57.0996 126.55 56.0996 125.95 56.0996 125.15C56.0996 124.35 56.9996 123.75 58.1996 123.75C59.3996 123.75 60.2996 124.35 60.2996 125.15Z" fill="#C4E5D9"/>
<path d="M63.7996 129.35C63.7996 130.15 62.8996 130.75 61.6996 130.75C60.5996 130.75 59.5996 130.15 59.5996 129.35C59.5996 128.55 60.4996 127.95 61.6996 127.95C62.8996 127.85 63.7996 128.55 63.7996 129.35Z" fill="#C4E5D9"/>
<path d="M66.9998 134.15C66.9998 134.95 66.0998 135.55 64.8998 135.55C63.7998 135.55 62.7998 134.95 62.7998 134.15C62.7998 133.35 63.6998 132.75 64.8998 132.75C66.0998 132.65 66.9998 133.35 66.9998 134.15Z" fill="#C4E5D9"/>
<path d="M70.4998 138.55C70.4998 139.35 69.5998 139.95 68.3998 139.95C67.2998 139.95 66.2998 139.35 66.2998 138.55C66.2998 137.75 67.1998 137.15 68.3998 137.15C69.5998 137.15 70.4998 137.75 70.4998 138.55Z" fill="#C4E5D9"/>
<path d="M75.2996 142.45C75.2996 143.25 74.3996 143.85 73.1996 143.85C72.0996 143.85 71.0996 143.25 71.0996 142.45C71.0996 141.65 71.9996 141.05 73.1996 141.05C74.3996 140.95 75.2996 141.65 75.2996 142.45Z" fill="#C4E5D9"/>
<path d="M81.9998 144.95C81.9998 145.75 81.0998 146.35 79.8998 146.35C78.7998 146.35 77.7998 145.75 77.7998 144.95C77.7998 144.15 78.6998 143.55 79.8998 143.55C81.0998 143.55 81.9998 144.15 81.9998 144.95Z" fill="#C4E5D9"/>
<path d="M88.7 144.95C88.7 145.75 87.8 146.35 86.6 146.35C85.5 146.35 84.5 145.75 84.5 144.95C84.5 144.15 85.4 143.55 86.6 143.55C87.8 143.55 88.7 144.15 88.7 144.95Z" fill="#C4E5D9"/>
<path d="M95.4998 143.85C95.4998 144.65 94.5998 145.25 93.3998 145.25C92.2998 145.25 91.2998 144.65 91.2998 143.85C91.2998 143.05 92.1998 142.45 93.3998 142.45C94.4998 142.45 95.4998 143.05 95.4998 143.85Z" fill="#C4E5D9"/>
</svg>
