<svg width="157" height="157" viewBox="0 0 157 157" fill="none" xmlns="http://www.w3.org/2000/svg">
<path d="M146.469 41.017C139.449 28.9897 129.927 19.4676 117.901 12.4487C105.873 5.4294 92.7421 1.92065 78.4987 1.92065C64.2572 1.92065 51.1219 5.43047 39.0963 12.4487C27.069 19.4672 17.5477 28.9897 10.528 41.017C3.50946 53.0439 0 66.1775 0 80.4172C0 97.5224 4.9905 112.904 14.974 126.565C24.9565 140.228 37.8523 149.682 53.6604 154.929C55.5005 155.27 56.8627 155.03 57.7484 154.214C58.6345 153.397 59.077 152.374 59.077 151.149C59.077 150.944 59.0594 149.105 59.0254 145.63C58.9903 142.154 58.9738 139.122 58.9738 136.534L56.6229 136.941C55.1239 137.216 53.233 137.332 50.95 137.299C48.6681 137.267 46.2993 137.028 43.8466 136.583C41.3929 136.143 39.1106 135.121 36.9981 133.519C34.8866 131.918 33.3877 129.822 32.5016 127.234L31.4795 124.882C30.7983 123.316 29.7257 121.577 28.2604 119.67C26.7951 117.762 25.3134 116.468 23.8144 115.786L23.0988 115.274C22.6219 114.934 22.1795 114.523 21.7703 114.047C21.3614 113.57 21.0553 113.093 20.8509 112.616C20.6461 112.138 20.8158 111.746 21.3618 111.438C21.9077 111.131 22.8944 110.981 24.326 110.981L26.3695 111.287C27.7324 111.56 29.4182 112.376 31.4291 113.739C33.4389 115.102 35.091 116.873 36.3859 119.053C37.954 121.847 39.8431 123.977 42.0588 125.442C44.2726 126.907 46.5048 127.639 48.753 127.639C51.0012 127.639 52.943 127.468 54.5791 127.129C56.2133 126.788 57.7466 126.276 59.1783 125.595C59.7915 121.028 61.4612 117.519 64.186 115.067C60.3024 114.658 56.8108 114.044 53.7095 113.226C50.6099 112.408 47.4069 111.08 44.1026 109.238C40.7965 107.399 38.0538 105.116 35.874 102.391C33.6938 99.6654 31.9045 96.0869 30.5087 91.6588C29.1121 87.2289 28.4136 82.1188 28.4136 76.3271C28.4136 68.0806 31.1058 61.0631 36.489 55.2707C33.9673 49.0709 34.2053 42.1207 37.2039 34.4209C39.1801 33.8069 42.1107 34.2676 45.9942 35.8002C49.8785 37.3335 52.7225 38.647 54.5289 39.7361C56.3354 40.8247 57.7828 41.7473 58.8733 42.4955C65.2116 40.7245 71.7526 39.8388 78.498 39.8388C85.2434 39.8388 91.7859 40.7245 98.1246 42.4955L102.009 40.0436C104.665 38.4075 107.801 36.9082 111.41 35.5453C115.022 34.1831 117.783 33.808 119.692 34.4219C122.757 42.1221 123.031 49.072 120.508 55.2718C125.891 61.0642 128.584 68.0835 128.584 76.3282C128.584 82.1199 127.883 87.2461 126.489 91.71C125.093 96.1746 123.288 99.7495 121.074 102.442C118.858 105.135 116.098 107.401 112.793 109.239C109.488 111.079 106.284 112.408 103.185 113.226C100.084 114.044 96.592 114.659 92.7084 115.068C96.2505 118.133 98.0218 122.972 98.0218 129.581V151.146C98.0218 152.371 98.4479 153.394 99.3006 154.211C100.152 155.027 101.497 155.267 103.337 154.925C119.148 149.68 132.044 140.225 142.026 126.563C152.007 112.901 156.999 97.5196 156.999 80.4144C156.995 66.1764 153.484 53.0439 146.469 41.017Z" fill="#4EE1A0"/>
</svg>
