<svg width="400" height="400" viewBox="0 0 400 400" fill="none" xmlns="http://www.w3.org/2000/svg">
<path d="M178.516 17.3438C154.219 20.0781 125.156 30.2344 103.906 43.3594C86.7186 54.0625 67.0311 71.5625 55.3124 86.7188C35.3124 112.578 22.7343 142.344 17.8124 175.391C16.2499 186.016 16.4843 215.391 18.203 226.562C26.2499 278.516 54.9999 323.828 98.4374 352.812C120.859 367.734 147.109 377.812 173.906 381.797C186.719 383.672 213.281 383.672 226.094 381.797C258.203 377.031 289.766 363.281 314.844 343.203C350.703 314.453 374.531 273.125 381.797 227.188C383.75 214.766 383.75 185.234 381.797 172.812C375.312 131.875 356.094 95.0781 326.484 66.875C297.578 39.375 259.219 21.4844 220.156 17.2656C211.25 16.25 187.422 16.3281 178.516 17.3438ZM317.969 110.859C317.969 111.25 316.562 112.734 314.922 114.219C308.828 119.375 264.844 159.922 262.109 162.812C260.703 164.297 236.953 186.406 217.812 203.984C208.672 212.422 204.766 214.844 200.156 214.844C194.062 214.844 193.828 214.688 161.406 184.844C154.922 178.906 146.484 170.938 142.578 167.266C130 155.156 92.0311 120.156 85.078 114.219C83.4374 112.734 82.0311 111.25 82.0311 110.859C82.0311 110.469 128.984 110.156 200 110.156C271.016 110.156 317.969 110.469 317.969 110.859ZM107.812 153.281C119.609 164.062 133.672 177.109 139.062 182.188L148.75 191.406L145.703 194.453C143.984 196.094 128.672 210.234 111.719 225.781C94.7655 241.406 78.0468 256.875 74.6093 260.156C71.1718 263.516 66.8749 267.5 65.078 269.141L61.7186 272.031V196.172C61.7186 118.516 61.7186 118.828 64.6874 115.469C65.7811 114.219 66.5624 114.844 76.0936 123.828C81.7186 129.141 96.0155 142.422 107.812 153.281ZM336.875 118.047C338.203 120.547 338.281 125.859 338.281 196.406V272.031L333.281 267.5C321.875 257.031 262.5 201.641 257.422 196.719L251.953 191.328L259.453 184.141C263.516 180.156 278.125 166.719 291.797 154.297C305.547 141.797 320.625 127.891 325.391 123.281C330.078 118.672 334.375 115 334.766 115.078C335.234 115.234 336.172 116.562 336.875 118.047ZM171.484 211.797C187.187 226.484 189.453 227.734 200.391 227.734C211.562 227.734 213.75 226.562 229.062 212.188C235.859 205.859 241.719 200.781 242.109 200.938C242.578 201.016 248.281 206.328 254.844 212.578C261.406 218.828 277.031 233.359 289.453 244.844C322.812 275.625 333.203 285.469 333.203 286.328C333.203 286.719 331.953 287.734 330.469 288.516C327.891 289.766 320.391 289.844 199.219 289.688C71.7186 289.453 70.703 289.453 68.203 287.891L65.703 286.328L77.9686 274.844C84.6874 268.594 102.187 252.344 116.797 238.828C131.406 225.234 146.719 211.016 150.781 207.109C154.844 203.281 158.359 200.078 158.594 200.078C158.828 200.078 164.609 205.312 171.484 211.797Z" fill="#4EE1A0"/>
</svg>
