<svg width="207" height="147" viewBox="0 0 207 147" fill="none" xmlns="http://www.w3.org/2000/svg">
<path d="M128.278 102.798C130.953 108.214 135.105 112.765 140.255 115.931C145.405 119.096 151.346 120.746 157.393 120.692C169.622 120.692 177.436 114.587 177.436 106.157C177.436 96.0561 169.407 92.474 155.953 86.5928L148.57 83.4326C127.277 74.374 113.125 63.0249 113.125 39.0352C113.125 16.9312 129.994 0.114228 156.35 0.114228C164.904 -0.505488 173.451 1.40618 180.922 5.61023C188.394 9.81427 194.459 16.1242 198.358 23.751L175.375 38.4841C173.87 34.7048 171.249 31.4722 167.86 29.2158C164.471 26.9595 160.474 25.7862 156.401 25.852C154.626 25.6736 152.833 25.8666 151.137 26.4186C149.44 26.9706 147.878 27.8696 146.548 29.0581C145.219 30.2466 144.153 31.6986 143.417 33.3215C142.681 34.9445 142.292 36.7027 142.275 38.4841C142.275 47.3274 147.76 50.9009 160.386 56.3774L167.768 59.5289C192.848 70.2666 207 81.211 207 105.821C207 132.351 186.129 146.886 158.092 146.886C147.171 147.579 136.282 145.103 126.739 139.755C117.196 134.408 109.407 126.417 104.311 116.748L128.278 102.798ZM24.0272 105.382C28.6671 113.596 32.8844 120.537 43.0007 120.537C52.6944 120.537 58.8176 116.748 58.8176 102.023V1.83639H88.3299V102.437C88.3299 132.945 70.4086 146.834 44.2598 146.834C35.0231 147.333 25.8514 145.029 17.9514 140.225C10.0514 135.42 3.79313 128.34 0 119.917L24.0272 105.382Z" fill="#F5DE19"/>
</svg>
